name analog
datacolumns 19
datarows 47
range 0.0 0.023
endheader
time	ground_force_vx	ground_force_vy	ground_force_vz	ground_force_px	ground_force_py	ground_force_pz	l_ground_force_vx	l_ground_force_vy	l_ground_force_vz	l_ground_force_px	l_ground_force_py	l_ground_force_pz	ground_torque_x	ground_torque_y	ground_torque_z	l_ground_torque_x	l_ground_torque_y	l_ground_torque_z
0.0	-0.0	-0.0	-0.0	9.402432441711426	19.40351104736328	-452.0703125	-9.63418197631836	-20.490631103515625	-267.34503173828125	-0.0	-0.0	-0.0	-0.0	-0.0	-0.0	95747.5859375	17784.3671875	-7422.00634765625
0.0005	-0.0	-0.0	-0.0	9.491567611694336	19.741308212280277	-450.304443359375	-9.997572898864746	-20.45556640625	-265.5657653808594	-0.0	-0.0	-0.0	-0.0	-0.0	-0.0	96040.984375	18054.033203125	-7446.203125
0.001	-0.0	-0.0	-0.0	9.072467803955078	19.74117851257324	-449.95123291015625	-9.661080360412598	-20.40230941772461	-266.4750061035156	-0.0	-0.0	-0.0	-0.0	-0.0	-0.0	95966.3515625	17968.55859375	-7330.1181640625
0.0015	-0.0	-0.0	-0.0	9.313018798828123	19.822044372558597	-450.90374755859375	-9.758186340332031	-20.172283172607425	-266.678955078125	-0.0	-0.0	-0.0	-0.0	-0.0	-0.0	95901.5234375	17905.14453125	-7333.54248046875
0.002	-0.0	-0.0	-0.0	9.766966819763184	19.6389102935791	-451.01080322265625	-9.978795051574709	-20.37557983398437	-266.64617919921875	-0.0	-0.0	-0.0	-0.0	-0.0	-0.0	95826.8359375	17822.58984375	-7330.3125
0.0025	-0.0	-0.0	-0.0	9.82104778289795	19.55452537536621	-450.6888732910156	-10.129213333129885	-20.34879875183105	-267.5138244628906	-0.0	-0.0	-0.0	-0.0	-0.0	-0.0	95619.9921875	17855.0234375	-7362.77392578125
0.003	-0.0	-0.0	-0.0	9.820935249328612	19.546676635742188	-449.6747131347656	-9.812006950378418	-20.19887351989746	-267.2383117675781	-0.0	-0.0	-0.0	-0.0	-0.0	-0.0	95797.546875	17722.759765625	-7380.45751953125
0.0035	-0.0	-0.0	-0.0	9.758792877197266	19.91089630126953	-450.1057434082031	-9.854763984680176	-20.164175033569336	-266.05352783203125	-0.0	-0.0	-0.0	-0.0	-0.0	-0.0	96016.28125	17801.244140625	-7413.8681640625
0.004	-0.0	-0.0	-0.0	10.045992851257324	19.403244018554688	-452.2681579589844	-9.85468578338623	-20.32533264160156	-265.3858947753906	-0.0	-0.0	-0.0	-0.0	-0.0	-0.0	95788.9921875	17882.115234375	-7282.4658203125
0.0045000000000000005	-0.0	-0.0	-0.0	10.13045597076416	19.5120906829834	-450.9029235839844	-9.90859603881836	-20.321630477905277	-265.5980834960937	-0.0	-0.0	-0.0	-0.0	-0.0	-0.0	95783.140625	17924.73046875	-7371.45751953125
0.005	-0.0	-0.0	-0.0	10.177359580993652	19.031938552856445	-452.2572021484375	-9.765750885009766	-20.352787017822266	-265.78106689453125	-0.0	-0.0	-0.0	-0.0	-0.0	-0.0	95770.4921875	17846.794921875	-7339.1328125
0.0055	-0.0	-0.0	-0.0	10.197308540344238	19.628700256347656	-450.8522033691406	-9.716142654418944	-20.544544219970703	-266.6158447265625	-0.0	-0.0	-0.0	-0.0	-0.0	-0.0	95785.0546875	18110.060546875	-7466.8564453125
0.006	-0.0	-0.0	-0.0	10.45917510986328	19.6431827545166	-452.7482604980469	-10.011981010437012	-20.3336238861084	-266.6742248535156	-0.0	-0.0	-0.0	-0.0	-0.0	-0.0	96008.296875	17972.48828125	-7419.23046875
0.006500000000000001	-0.0	-0.0	-0.0	10.30690097808838	19.55397605895996	-451.9059448242188	-10.140175819396973	-20.3265323638916	-265.8894348144531	-0.0	-0.0	-0.0	-0.0	-0.0	-0.0	96276.765625	18028.16796875	-7389.64306640625
0.007	-0.0	-0.0	-0.0	10.73308277130127	19.670425415039062	-452.9127807617188	-10.243245124816896	-20.81685447692871	-266.8306579589844	-0.0	-0.0	-0.0	-0.0	-0.0	-0.0	96156.3984375	18013.265625	-7517.57470703125
0.0075	-0.0	-0.0	-0.0	10.506272315979004	19.375587463378903	-453.4558410644531	-10.120111465454102	-20.3952579498291	-267.1802062988281	-0.0	-0.0	-0.0	-0.0	-0.0	-0.0	96474.0234375	18083.048828125	-7448.953125
0.008	-0.0	-0.0	-0.0	10.485830307006836	19.252166748046875	-452.396728515625	-10.017349243164062	-20.470443725585938	-268.5250244140625	-0.0	-0.0	-0.0	-0.0	-0.0	-0.0	96387.6015625	18129.400390625	-7588.095703125
0.0085	-0.0	-0.0	-0.0	10.45849895477295	19.27301788330078	-451.2286987304688	-10.02431869506836	-20.334325790405277	-268.4172058105469	-0.0	-0.0	-0.0	-0.0	-0.0	-0.0	96451.125	18057.419921875	-7489.92529296875
0.009000000000000001	-0.0	-0.0	-0.0	10.389108657836914	19.08047103881836	-451.5560607910156	-10.085719108581545	-20.762346267700195	-267.4234619140625	-0.0	-0.0	-0.0	-0.0	-0.0	-0.0	96357.265625	18286.39453125	-7403.326171875
0.0095	-0.0	-0.0	-0.0	10.471672058105469	19.464439392089844	-452.0959167480469	-9.93560791015625	-20.78282356262207	-269.2221374511719	-0.0	-0.0	-0.0	-0.0	-0.0	-0.0	96369.6328125	18246.072265625	-7389.5458984375
0.01	-0.0	-0.0	-0.0	10.197619438171388	19.75301170349121	-451.4984436035156	-9.962993621826172	-20.3477783203125	-267.34234619140625	-0.0	-0.0	-0.0	-0.0	-0.0	-0.0	96608.171875	18055.9765625	-7450.9619140625
0.0105	-0.0	-0.0	-0.0	10.038025856018066	19.6425724029541	-449.6578979492188	-10.02431869506836	-20.219219207763672	-267.2088928222656	-0.0	-0.0	-0.0	-0.0	-0.0	-0.0	96327.1640625	18052.533203125	-7375.947265625
0.011	-0.0	-0.0	-0.0	9.4009428024292	19.826906204223636	-450.1095886230469	-10.119393348693848	-20.40864562988281	-267.9574279785156	-0.0	-0.0	-0.0	-0.0	-0.0	-0.0	96221.8515625	18418.650390625	-7435.44140625
0.0115	-0.0	-0.0	-0.0	9.640775680541992	19.87607955932617	-450.3902587890625	-9.941859245300291	-20.01543235778809	-267.7156982421875	-0.0	-0.0	-0.0	-0.0	-0.0	-0.0	96229.828125	18093.220703125	-7400.5908203125
0.012	-0.0	-0.0	-0.0	9.53955078125	19.86029624938965	-450.1472778320313	-9.99680995941162	-20.265369415283203	-267.9562683105469	-0.0	-0.0	-0.0	-0.0	-0.0	-0.0	96166.5390625	18112.3515625	-7400.6708984375
0.0125	-0.0	-0.0	-0.0	9.612812995910645	19.78109359741211	-449.3781127929688	-10.08548355102539	-20.46925163269043	-267.5585632324219	-0.0	-0.0	-0.0	-0.0	-0.0	-0.0	96391.375	17920.861328125	-7510.193359375
0.013000000000000001	-0.0	-0.0	-0.0	9.517704010009766	19.82048797607422	-448.9372253417969	-9.969151496887209	-20.40824317932129	-267.82275390625	-0.0	-0.0	-0.0	-0.0	-0.0	-0.0	96085.7734375	18091.8046875	-7439.50048828125
0.0135	-0.0	-0.0	-0.0	10.0921049118042	19.630861282348636	-450.03912353515625	-10.31806468963623	-20.253158569335938	-266.6200866699219	-0.0	-0.0	-0.0	-0.0	-0.0	-0.0	96019.2265625	18130.396484375	-7539.8779296875
0.014	-0.0	-0.0	-0.0	9.779715538024902	19.842668533325195	-449.3552856445313	-10.323866844177246	-20.50211906433105	-266.3799743652344	-0.0	-0.0	-0.0	-0.0	-0.0	-0.0	95900.84375	18133.822265625	-7426.63037109375
0.0145	-0.0	-0.0	-0.0	10.1475191116333	19.44744873046875	-450.12646484375	-10.002290725708008	-20.40230941772461	-267.9527893066406	-0.0	-0.0	-0.0	-0.0	-0.0	-0.0	95962.515625	18308.314453125	-7539.595703125
0.015	-0.0	-0.0	-0.0	10.432299613952637	19.09119033813477	-450.3466491699219	-9.880163192749023	-20.45750999450684	-267.0137023925781	-0.0	-0.0	-0.0	-0.0	-0.0	-0.0	95832.9296875	18154.78125	-7598.80126953125
0.0155	-0.0	-0.0	-0.0	10.49885368347168	19.3745059967041	-448.296142578125	-9.885577201843262	-20.6894588470459	-266.2934875488281	-0.0	-0.0	-0.0	-0.0	-0.0	-0.0	95717.296875	18190.708984375	-7578.443359375
0.016	-0.0	-0.0	-0.0	10.62118911743164	19.323566436767575	-450.9405212402344	-10.207094192504885	-20.551288604736328	-266.6424865722656	-0.0	-0.0	-0.0	-0.0	-0.0	-0.0	96015.3125	17903.9609375	-7437.7802734375
0.0165	-0.0	-0.0	-0.0	10.715312004089355	19.290245056152344	-449.66937255859375	-10.201740264892578	-20.667274475097656	-266.05352783203125	-0.0	-0.0	-0.0	-0.0	-0.0	-0.0	95736.5546875	18213.240234375	-7370.939453125
0.017	-0.0	-0.0	-0.0	10.658979415893556	19.552562713623047	-449.3365173339844	-10.234752655029297	-20.667274475097656	-266.5122985839844	-0.0	-0.0	-0.0	-0.0	-0.0	-0.0	95910.359375	18214.951171875	-7437.85107421875
0.0175	-0.0	-0.0	-0.0	10.536507606506348	19.36939811706543	-448.2966918945313	-10.318337440490724	-20.58398056030273	-266.512451171875	-0.0	-0.0	-0.0	-0.0	-0.0	-0.0	95864.3125	18206.9921875	-7478.57958984375
0.018000000000000002	-0.0	-0.0	-0.0	10.53628158569336	19.134899139404297	-448.2781372070313	-10.019380569458008	-20.57895278930664	-264.8573303222656	-0.0	-0.0	-0.0	-0.0	-0.0	-0.0	95908.09375	18299.634765625	-7526.6923828125
0.0185	-0.0	-0.0	-0.0	10.104334831237791	19.58052444458008	-447.57220458984375	-10.168930053710938	-20.33213806152344	-267.81842041015625	-0.0	-0.0	-0.0	-0.0	-0.0	-0.0	95969.78125	18418.076171875	-7569.00537109375
0.019	-0.0	-0.0	-0.0	9.874139785766602	19.486831665039062	-449.96917724609375	-10.351174354553224	-20.462766647338867	-266.1824035644531	-0.0	-0.0	-0.0	-0.0	-0.0	-0.0	96031.0703125	18229.8046875	-7556.583984375
0.0195	-0.0	-0.0	-0.0	10.080787658691406	19.60427665710449	-449.59808349609375	-10.01041316986084	-20.039793014526367	-267.2113037109375	-0.0	-0.0	-0.0	-0.0	-0.0	-0.0	95761.8125	18426.390625	-7590.56103515625
0.02	-0.0	-0.0	-0.0	9.813156127929688	19.669557571411133	-447.3325805664063	-10.201740264892578	-20.276966094970703	-266.0355529785156	-0.0	-0.0	-0.0	-0.0	-0.0	-0.0	95996.515625	18449.212890625	-7545.54443359375
0.0205	-0.0	-0.0	-0.0	9.597938537597656	19.337064743041992	-450.62933349609375	-10.08494472503662	-20.337512969970703	-266.87994384765625	-0.0	-0.0	-0.0	-0.0	-0.0	-0.0	95781.6171875	18397.69140625	-7565.78662109375
0.021	-0.0	-0.0	-0.0	10.186488151550291	19.69781875610352	-448.4262390136719	-10.02431869506836	-20.462631225585938	-266.3855895996094	-0.0	-0.0	-0.0	-0.0	-0.0	-0.0	95923.5390625	18287.39453125	-7628.03369140625
0.021500000000000002	-0.0	-0.0	-0.0	9.80105686187744	19.36563491821289	-447.80023193359375	-10.020064353942873	-20.40230941772461	-267.24530029296875	-0.0	-0.0	-0.0	-0.0	-0.0	-0.0	95695.4765625	18242.48046875	-7615.71630859375
0.022	-0.0	-0.0	-0.0	9.9915771484375	19.5518856048584	-448.7791748046875	-10.02431869506836	-20.43037223815918	-266.673583984375	-0.0	-0.0	-0.0	-0.0	-0.0	-0.0	95939.8359375	18205.19921875	-7497.08154296875
0.0225	-0.0	-0.0	-0.0	10.141533851623535	19.73007202148437	-447.9902038574219	-10.052541732788086	-20.40230941772461	-267.0850830078125	-0.0	-0.0	-0.0	-0.0	-0.0	-0.0	96049.71875	18301.607421875	-7489.02099609375
0.023	-0.0	-0.0	-0.0	10.348419189453123	19.783246994018555	-448.3963623046875	-9.733853340148926	-20.695411682128903	-268.7510070800781	-0.0	-0.0	-0.0	-0.0	-0.0	-0.0	96202.15625	18359.291015625	-7436.326171875
